<svg xmlns="http://www.w3.org/2000/svg" width="466.80133" height="104.96546">
  <defs>
    <clipPath id="a">
      <path d="M0 150h400V0H0z"/>
    </clipPath>
  </defs>
  <path d="M60.07599866 5.1e-7L1.6e-7 104.96533122h30.03866592L56.3813321 59.6906657 75.59999828 26.6666665z" fill="#1162a1"/>
  <path d="M86.22773134 45.34106605l34.93333246 59.6239985H93.4890645l-36.0759991-44.0079989z" fill="#3a86c7"/>
  <path d="M32.1893327 104.96546455l39.851999-23.18666608-15.32133295-18.9706662z" fill="#07426d"/>
  <g clip-path="url(#a)" transform="matrix(1.33333 0 0 -1.33333 -33.332799 153.81573)">
    <path d="M171.1333 53.2617c1.594 0 2.397.736 2.397 2.227v8.171h-20.555c-2.314 0-3.936-.451-4.874-1.362-.933-.907-1.401-2.161-1.401-3.754 0-1.596.468-2.881 1.401-3.845.938-.96 2.504-1.437 4.707-1.437zm-4.209 35.076c2.696 0 5.003-.355 6.934-1.069 1.925-.716 3.507-1.723 4.745-3.015 1.237-1.293 2.133-2.821 2.684-4.585.549-1.756.825-3.659.825-5.691v-20.47c0-1.596-.126-2.947-.372-4.05-.249-1.099-.702-1.991-1.363-2.677-.659-.687-1.583-1.204-2.765-1.532-1.184-.327-2.683-.492-4.498-.492h-20.388c-5.173 0-8.905 1.179-11.185 3.551-2.283 2.364-3.429 5.614-3.429 9.738 0 1.979.264 3.744.787 5.284.523 1.542 1.361 2.847 2.516 3.921 1.159 1.074 2.671 1.9 4.542 2.47 1.87.586 4.154.873 6.851.873h20.722v3.302c0 1.706-.513 3.133-1.533 4.288-1.014 1.162-2.735 1.737-5.156 1.737h-26.086v8.417zM224.1289 88.3374v-8.417h-15.356c-3.741 0-5.613-1.873-5.613-5.612v-29.552h-8.751v30.868c0 4.41.895 7.62 2.684 9.667 1.79 2.027 4.827 3.046 9.12 3.046zM259.0449 53.2617c3.522 0 6.026.818 7.512 2.474 1.486 1.653 2.23 4.348 2.23 8.087v16.098h-18.409c-3.8 0-6.564-1.048-8.298-3.137-1.73-2.093-2.602-5.504-2.602-10.237 0-4.731.872-8.13 2.602-10.191 1.734-2.067 4.498-3.094 8.298-3.094zm18.569 53.981v-43.83c0-6.328-1.357-11.02-4.085-14.081-2.717-3.049-6.698-4.575-11.924-4.575h-12.053c-5.834 0-10.443 1.79-13.827 5.367-3.382 3.577-5.078 9.05-5.078 16.423 0 7.374 1.696 12.852 5.078 16.427 3.384 3.579 7.993 5.364 13.827 5.364h19.235v18.905zM307.7461 79.9204c-3.794 0-6.561-1.048-8.291-3.142-1.738-2.088-2.609-5.499-2.609-10.232 0-4.731.871-8.129 2.609-10.193 1.73-2.064 4.497-3.092 8.291-3.092h7.513c3.799 0 6.562 1.028 8.294 3.092 1.733 2.064 2.604 5.462 2.604 10.193 0 4.733-.871 8.144-2.604 10.232-1.732 2.094-4.495 3.142-8.294 3.142zm8.34 8.417c5.778 0 10.372-1.8 13.784-5.402 3.413-3.609 5.116-9.07 5.116-16.389 0-7.373-1.703-12.845-5.116-16.422-3.412-3.578-8.006-5.368-13.784-5.368h-9.168c-5.833 0-10.442 1.79-13.825 5.368-3.38 3.577-5.075 9.049-5.075 16.422 0 7.374 1.695 12.852 5.075 16.427 3.383 3.579 7.992 5.364 13.825 5.364zM375.1006 88.3374v-8.417h-15.35c-3.745 0-5.615-1.873-5.615-5.612v-29.552h-8.747v30.868c0 4.41.893 7.62 2.682 9.667 1.786 2.027 4.829 3.046 9.12 3.046z" fill="#221e20"/>
  </g>
</svg>
